<svg width="108" height="10" viewBox="0 0 108 10" fill="none" xmlns="http://www.w3.org/2000/svg">
<g clip-path="url(#clip0_58:183)">
<path d="M1.59847 5.62797C1.23235 6.71172 1.0395 7.85254 1.02785 9.00348H7.09855V10H0.000127213C-0.0596238 3.77201 2.30652 0.452388 7.09855 0.0411254V1.26226C4.7344 1.50691 3.04146 2.62997 2.01971 4.63145H7.09855V5.62797H1.59847ZM13.6682 9.99367H7.6393V0.0442896H8.55946V8.99083H13.6682V9.99367ZM15.876 5.62797C15.5084 6.7113 15.3155 7.85239 15.3054 9.00348H21.3731V10H14.2776C14.2179 3.77201 16.583 0.452388 21.3731 0.0411254V1.26226C19.0089 1.50691 17.316 2.62997 16.2942 4.63145H21.3731V5.62797H15.876ZM27.387 10C26.5903 7.66108 25.0796 6.25224 22.8549 5.77349V10H21.9138L21.9288 0.0506156H22.8489V3.36286C24.0141 1.37404 25.9171 0.266792 28.5581 0.0411254V1.26226C26.1681 1.48793 24.4751 2.6247 23.4793 4.67257C26.0944 5.33692 27.7873 7.11273 28.5581 10H27.387ZM33.0335 1.03132V9.99367H32.0924V1.03132H29.1258V0.0347993H36.0838V1.03132H33.0335ZM40.5771 5.62797C41.9713 6.56016 42.9293 8.01751 43.4511 10H42.2889C41.4922 7.66108 39.9815 6.25224 37.7568 5.77349V10H36.7769V0C40.8579 0.0189813 43.3923 1.89497 44.3802 5.62797H40.5771ZM42.8267 4.63145C42.0021 2.47601 40.3092 1.35295 37.7478 1.26226V4.63145H42.8267ZM44.9927 0C50.442 0.0295265 53.1308 3.36286 53.0591 10H44.9927V0ZM52.0433 9.00348C51.7326 4.23284 49.709 1.65243 45.9726 1.26226V9.00348H52.0433ZM56.2079 1.03132V9.99367H55.2698V1.03132H52.3032V0.0347993H59.2612V1.03132H56.2079ZM60.1993 5.62797C59.8317 6.7113 59.6388 7.85239 59.6287 9.00348H65.6964V10H58.601C58.5412 3.77201 60.9064 0.452388 65.6964 0.0411254V1.26226C63.3342 1.50691 61.6413 2.62997 60.6176 4.63145H65.6964V5.62797H60.1993ZM73.3445 10H66.2371C66.1774 3.77201 68.5435 0.452388 73.3356 0.0411254V1.26226C69.5991 1.65032 67.5815 4.23073 67.2828 9.00348H73.3356L73.3445 10ZM74.8383 4.60297H79.9171V0.0506156H80.8582V10H79.9171V5.59949H74.8383L74.8234 10H73.8853V0.0506156H74.8264L74.8383 4.60297ZM88.581 10C88.3958 4.31825 86.3523 1.40567 82.4506 1.26226V10H81.4707V0C86.92 0.0295265 89.6088 3.36286 89.5371 10H88.581ZM91.476 10H90.523L90.5379 0.0506156H91.479L91.476 10ZM98.1741 10C97.3774 7.66108 95.8667 6.25224 93.642 5.77349V10H92.7009L92.7158 0.0506156H93.636V3.36286C94.8011 1.37404 96.7042 0.266792 99.3452 0.0411254V1.26226C96.9552 1.48793 95.2622 2.6247 94.2664 4.67257C96.8815 5.33692 98.5744 7.11273 99.3452 10H98.1741ZM100.908 5.62797V10H99.9278V0C105.377 0.0295265 108.066 3.36286 107.994 10H107.029C107.007 8.51584 106.78 7.04306 106.357 5.62797H100.908ZM105.987 4.63145C105.162 2.47601 103.469 1.35295 100.908 1.26226V4.63145H105.987Z" fill="white"/>
</g>
<defs>
<clipPath id="clip0_58:183">
<rect width="108" height="10" fill="white"/>
</clipPath>
</defs>
</svg>
