<svg width="137" height="125" viewBox="0 0 137 125" fill="none" xmlns="http://www.w3.org/2000/svg" style="">
<path d="M27.55 71.31L2 77.93" stroke="white" stroke-width="3" stroke-linecap="round" stroke-linejoin="round" class="DegBYvst_0"></path>
<path d="M51.19 65.18L68.3 60.74V21.34L2 2" stroke="white" stroke-width="3" stroke-linecap="round" stroke-linejoin="round" class="DegBYvst_1"></path>
<path d="M134.6 77.93L109.13 71.33" stroke="white" stroke-width="3" stroke-linecap="round" stroke-linejoin="round" class="DegBYvst_2"></path>
<path d="M85.4998 65.2L68.2998 60.74V21.34L134.6 2" stroke="white" stroke-width="3" stroke-linecap="round" stroke-linejoin="round" class="DegBYvst_3"></path>
<path d="M40.7998 57.16H37.9398C32.2016 57.16 27.5498 61.8096 27.5498 67.545C27.5498 73.2805 32.2016 77.93 37.9398 77.93H40.7998C46.538 77.93 51.1898 73.2805 51.1898 67.545C51.1898 61.8096 46.538 57.16 40.7998 57.16Z" stroke="white" stroke-width="3" stroke-linecap="round" stroke-linejoin="round" class="DegBYvst_4"></path>
<path d="M57.71 93.48V123.3H21.02V93.48C21.02 92.2723 21.2581 91.0765 21.7205 89.9608C22.183 88.8452 22.8608 87.8317 23.7152 86.9782C24.5697 86.1247 25.584 85.4479 26.7001 84.9867C27.8162 84.5254 29.0123 84.2887 30.22 84.29H48.52C49.7272 84.2887 50.9229 84.5255 52.0384 84.9869C53.154 85.4483 54.1676 86.1251 55.0213 86.9788C55.8749 87.8324 56.5518 88.846 57.0132 89.9616C57.4745 91.0772 57.7113 92.2728 57.71 93.48V93.48Z" stroke="white" stroke-width="3" stroke-linecap="round" stroke-linejoin="round" class="DegBYvst_5"></path>
<path d="M115.66 93.48V123.3H78.9697V93.48C78.9697 92.2723 79.2078 91.0765 79.6702 89.9608C80.1327 88.8452 80.8105 87.8317 81.665 86.9782C82.5194 86.1247 83.5337 85.4479 84.6498 84.9867C85.7659 84.5254 86.962 84.2887 88.1697 84.29H106.46C107.667 84.2887 108.864 84.5254 109.98 84.9867C111.096 85.4479 112.11 86.1247 112.965 86.9782C113.819 87.8317 114.497 88.8452 114.959 89.9608C115.422 91.0765 115.66 92.2723 115.66 93.48V93.48Z" stroke="white" stroke-width="3" stroke-linecap="round" stroke-linejoin="round" class="DegBYvst_6"></path>
<path d="M98.7397 57.16H95.8797C90.1415 57.16 85.4897 61.8096 85.4897 67.545C85.4897 73.2805 90.1415 77.93 95.8797 77.93H98.7397C104.478 77.93 109.13 73.2805 109.13 67.545C109.13 61.8096 104.478 57.16 98.7397 57.16Z" stroke="white" stroke-width="3" stroke-linecap="round" stroke-linejoin="round" class="DegBYvst_7"></path>
<path d="M61.0298 81.81C63.7912 81.81 66.0298 79.5715 66.0298 76.81C66.0298 74.0486 63.7912 71.81 61.0298 71.81C58.2684 71.81 56.0298 74.0486 56.0298 76.81C56.0298 79.5715 58.2684 81.81 61.0298 81.81Z" stroke="white" stroke-width="3" stroke-linecap="round" stroke-linejoin="round" class="DegBYvst_8"></path>
<path d="M76.4697 81.81C79.2312 81.81 81.4697 79.5715 81.4697 76.81C81.4697 74.0486 79.2312 71.81 76.4697 71.81C73.7083 71.81 71.4697 74.0486 71.4697 76.81C71.4697 79.5715 73.7083 81.81 76.4697 81.81Z" stroke="white" stroke-width="3" stroke-linecap="round" stroke-linejoin="round" class="DegBYvst_9"></path>
<path d="M5.81982 86.77H12.5098" stroke="white" stroke-width="3" stroke-linecap="round" stroke-linejoin="round" class="DegBYvst_10"></path>
<path d="M68.3398 88.94V95.63" stroke="white" stroke-width="3" stroke-linecap="round" stroke-linejoin="round" class="DegBYvst_11"></path>
<path d="M5.81982 104.01H12.5098" stroke="white" stroke-width="3" stroke-linecap="round" stroke-linejoin="round" class="DegBYvst_12"></path>
<path d="M2 95.63H7.49" stroke="white" stroke-width="3" stroke-linecap="round" stroke-linejoin="round" class="DegBYvst_13"></path>
<path d="M11.7598 95.63H17.2498" stroke="white" stroke-width="3" stroke-linecap="round" stroke-linejoin="round" class="DegBYvst_14"></path>
<path d="M124.09 86.77H130.78" stroke="white" stroke-width="3" stroke-linecap="round" stroke-linejoin="round" class="DegBYvst_15"></path>
<path d="M124.09 104.01H130.78" stroke="white" stroke-width="3" stroke-linecap="round" stroke-linejoin="round" class="DegBYvst_16"></path>
<path d="M119.27 95.63H124.76" stroke="white" stroke-width="3" stroke-linecap="round" stroke-linejoin="round" class="DegBYvst_17"></path>
<path d="M129.03 95.63H134.52" stroke="white" stroke-width="3" stroke-linecap="round" stroke-linejoin="round" class="DegBYvst_18"></path>
<path d="M68.3 102.76L57.71 104.82" stroke="white" stroke-width="3" stroke-linecap="round" stroke-linejoin="round" class="DegBYvst_19"></path>
<path d="M21.02 111.96L2 115.66" stroke="white" stroke-width="3" stroke-linecap="round" stroke-linejoin="round" class="DegBYvst_20"></path>
<path d="M78.9698 104.84L68.2998 102.77" stroke="white" stroke-width="3" stroke-linecap="round" stroke-linejoin="round" class="DegBYvst_21"></path>
<path d="M134.6 115.66L115.66 111.98" stroke="white" stroke-width="3" stroke-linecap="round" stroke-linejoin="round" class="DegBYvst_22"></path>
<path d="M115.66 123.3H78.9697" stroke="white" stroke-width="3" stroke-linecap="round" stroke-linejoin="round" class="DegBYvst_23"></path>
<path d="M57.71 123.3H21.02" stroke="white" stroke-width="3" stroke-linecap="round" stroke-linejoin="round" class="DegBYvst_24"></path>
<style data-made-with="vivus-instant">.DegBYvst_0{stroke-dasharray:27 29;stroke-dashoffset:28;animation:DegBYvst_draw 1333ms ease 0ms forwards;}.DegBYvst_1{stroke-dasharray:127 129;stroke-dashoffset:128;animation:DegBYvst_draw 1333ms ease 27ms forwards;}.DegBYvst_2{stroke-dasharray:27 29;stroke-dashoffset:28;animation:DegBYvst_draw 1333ms ease 55ms forwards;}.DegBYvst_3{stroke-dasharray:127 129;stroke-dashoffset:128;animation:DegBYvst_draw 1333ms ease 83ms forwards;}.DegBYvst_4{stroke-dasharray:71 73;stroke-dashoffset:72;animation:DegBYvst_draw 1333ms ease 111ms forwards;}.DegBYvst_5{stroke-dasharray:144 146;stroke-dashoffset:145;animation:DegBYvst_draw 1333ms ease 138ms forwards;}.DegBYvst_6{stroke-dasharray:144 146;stroke-dashoffset:145;animation:DegBYvst_draw 1333ms ease 166ms forwards;}.DegBYvst_7{stroke-dasharray:71 73;stroke-dashoffset:72;animation:DegBYvst_draw 1333ms ease 194ms forwards;}.DegBYvst_8{stroke-dasharray:32 34;stroke-dashoffset:33;animation:DegBYvst_draw 1333ms ease 222ms forwards;}.DegBYvst_9{stroke-dasharray:32 34;stroke-dashoffset:33;animation:DegBYvst_draw 1333ms ease 249ms forwards;}.DegBYvst_10{stroke-dasharray:7 9;stroke-dashoffset:8;animation:DegBYvst_draw 1333ms ease 277ms forwards;}.DegBYvst_11{stroke-dasharray:7 9;stroke-dashoffset:8;animation:DegBYvst_draw 1333ms ease 305ms forwards;}.DegBYvst_12{stroke-dasharray:7 9;stroke-dashoffset:8;animation:DegBYvst_draw 1333ms ease 333ms forwards;}.DegBYvst_13{stroke-dasharray:6 8;stroke-dashoffset:7;animation:DegBYvst_draw 1333ms ease 361ms forwards;}.DegBYvst_14{stroke-dasharray:6 8;stroke-dashoffset:7;animation:DegBYvst_draw 1333ms ease 388ms forwards;}.DegBYvst_15{stroke-dasharray:7 9;stroke-dashoffset:8;animation:DegBYvst_draw 1333ms ease 416ms forwards;}.DegBYvst_16{stroke-dasharray:7 9;stroke-dashoffset:8;animation:DegBYvst_draw 1333ms ease 444ms forwards;}.DegBYvst_17{stroke-dasharray:6 8;stroke-dashoffset:7;animation:DegBYvst_draw 1333ms ease 472ms forwards;}.DegBYvst_18{stroke-dasharray:6 8;stroke-dashoffset:7;animation:DegBYvst_draw 1333ms ease 499ms forwards;}.DegBYvst_19{stroke-dasharray:11 13;stroke-dashoffset:12;animation:DegBYvst_draw 1333ms ease 527ms forwards;}.DegBYvst_20{stroke-dasharray:20 22;stroke-dashoffset:21;animation:DegBYvst_draw 1333ms ease 555ms forwards;}.DegBYvst_21{stroke-dasharray:11 13;stroke-dashoffset:12;animation:DegBYvst_draw 1333ms ease 583ms forwards;}.DegBYvst_22{stroke-dasharray:20 22;stroke-dashoffset:21;animation:DegBYvst_draw 1333ms ease 611ms forwards;}.DegBYvst_23{stroke-dasharray:37 39;stroke-dashoffset:38;animation:DegBYvst_draw 1333ms ease 638ms forwards;}.DegBYvst_24{stroke-dasharray:37 39;stroke-dashoffset:38;animation:DegBYvst_draw 1333ms ease 666ms forwards;}@keyframes DegBYvst_draw{100%{stroke-dashoffset:0;}}@keyframes DegBYvst_fade{0%{stroke-opacity:1;}93.54838709677419%{stroke-opacity:1;}100%{stroke-opacity:0;}}</style></svg>
