<svg width="130" height="130" viewBox="0 0 130 130" fill="none" xmlns="http://www.w3.org/2000/svg" style="">
<path d="M82.9749 108.123C94.2282 91.0085 92.336 67.7742 77.2985 52.7178C62.1342 37.5344 38.6642 35.7358 21.5321 47.3219M82.9749 108.123C81.3551 110.586 79.463 112.923 77.2985 115.09C67.2922 125.109 46.0725 133.771 28.8504 123.115C27.8919 122.522 27.4127 122.225 27.0504 122.082C26.3576 121.807 25.8322 121.728 25.0893 121.785C24.7007 121.815 24.2605 121.929 23.38 122.158C17.8396 123.596 15.0694 124.315 13.0736 123.908C9.60977 123.202 6.9027 120.492 6.19776 117.023C5.7916 115.025 6.50961 112.252 7.94562 106.704C8.17389 105.822 8.28803 105.381 8.31794 104.991C8.37494 104.247 8.29393 103.715 8.01824 103.022C7.87359 102.658 7.57787 102.182 6.98643 101.229C-3.69304 84.0226 4.57195 63.1633 15.0044 52.7178C17.0421 50.6774 19.2299 48.8788 21.5321 47.3219M82.9749 108.123L83.9 107.965C87.8161 107.024 91.6826 105.466 95.396 103.168C96.5598 102.448 97.1417 102.088 97.5817 101.914C98.4229 101.58 99.0609 101.484 99.963 101.553C100.435 101.59 100.969 101.729 102.039 102.006C108.766 103.752 112.13 104.625 114.553 104.131C118.76 103.274 122.047 99.9828 122.903 95.7714C123.396 93.3449 122.524 89.9769 120.78 83.2408C120.503 82.17 120.365 81.6346 120.328 81.1607C120.259 80.2574 120.357 79.6112 120.692 78.7695C120.868 78.328 121.227 77.7494 121.945 76.5923C134.913 55.6989 124.877 30.3698 112.209 17.6859C91.3208 -3.22862 57.4543 -3.22862 36.5661 17.6859C28.22 26.0426 23.2086 36.4738 21.5321 47.3219" stroke="#FAFAFA" stroke-width="3" class="lpsdBFxU_0"></path>
<path d="M58.7003 83.9C58.7003 87.3794 61.5209 90.2 65.0003 90.2C68.4797 90.2 71.3003 87.3794 71.3003 83.9C71.3003 80.4206 68.4797 77.6 65.0003 77.6C61.5209 77.6 58.7003 80.4206 58.7003 83.9Z" fill="#FAFAFA" class="lpsdBFxU_1"></path>
<path d="M39.8003 83.9C39.8003 87.3794 42.6209 90.2 46.1003 90.2C49.5797 90.2 52.4003 87.3794 52.4003 83.9C52.4003 80.4206 49.5797 77.6 46.1003 77.6C42.6209 77.6 39.8003 80.4206 39.8003 83.9Z" fill="#FAFAFA" class="lpsdBFxU_2"></path>
<path d="M20.9003 83.9C20.9003 87.3794 23.7209 90.2 27.2003 90.2C30.6797 90.2 33.5003 87.3794 33.5003 83.9C33.5003 80.4206 30.6797 77.6 27.2003 77.6C23.7209 77.6 20.9003 80.4206 20.9003 83.9Z" fill="#FAFAFA" class="lpsdBFxU_3"></path>
<style data-made-with="vivus-instant">.lpsdBFxU_0{stroke-dasharray:535 537;stroke-dashoffset:536;animation:lpsdBFxU_draw 3253ms ease 0ms forwards;}.lpsdBFxU_1{stroke-dasharray:40 42;stroke-dashoffset:41;animation:lpsdBFxU_draw 248ms ease 3253ms forwards;}.lpsdBFxU_2{stroke-dasharray:40 42;stroke-dashoffset:41;animation:lpsdBFxU_draw 248ms ease 3502ms forwards;}.lpsdBFxU_3{stroke-dasharray:40 42;stroke-dashoffset:41;animation:lpsdBFxU_draw 248ms ease 3751ms forwards;}@keyframes lpsdBFxU_draw{100%{stroke-dashoffset:0;}}@keyframes lpsdBFxU_fade{0%{stroke-opacity:1;}95.1219512195122%{stroke-opacity:1;}100%{stroke-opacity:0;}}</style></svg>
