<svg width="136" height="135" viewBox="0 0 136 135" fill="none" xmlns="http://www.w3.org/2000/svg" style="">
<path d="M45.5108 74.0791C43.7293 74.1384 42.126 74.2035 40.9859 74.2982C31.6512 75.0504 17.3878 77.4548 14.9888 78.6747C14.6256 78.858 14.2849 79.0826 13.9734 79.3439V79.3439C13.4883 79.6712 13.0767 80.0956 12.7649 80.5901C12.4531 81.0845 12.2479 81.6383 12.1623 82.2162C12.1623 82.2162 12.1623 82.2162 12.1623 82.2458C11.887 83.3173 11.9095 84.4433 12.2276 85.503C12.361 86.2529 12.6795 86.9578 13.1543 87.5544C13.629 88.1509 14.2452 88.6202 14.9472 88.92L15.1016 89.0029C16.1527 89.5537 17.6847 89.6366 19.8521 89.2517L20.6063 89.1095L24.6383 88.2805C26.3484 87.931 31.0336 87.1789 34.3768 86.7111L36.0573 86.4742C38.2544 83.4716 41.3066 79.4564 45.5108 74.0791Z" stroke="white" stroke-width="3" stroke-miterlimit="10" class="RlYEdHcP_0"></path>
<path d="M100.486 84.9568C99.6965 87.7635 98.946 90.3774 98.2294 92.8528C97.8758 94.1056 97.526 95.3282 97.1799 96.5208L97.4226 96.6593C97.9191 96.9484 98.4157 97.2616 98.9122 97.5386C100.013 98.2532 101.172 98.8581 102.377 99.3455C107.923 100.46 111.258 93.2082 107.1 89.0765C106.597 88.5284 103.398 86.5649 100.486 84.9568Z" stroke="white" stroke-width="3" stroke-miterlimit="10" class="RlYEdHcP_1"></path>
<path d="M17.6953 62.6146C27.9824 59.8183 38.6132 58.4155 49.2902 58.4455H51.0261C53.0986 58.4455 55.1593 58.5379 57.1963 58.6534C60.4556 54.6633 64.0987 50.2285 68.1728 45.2914C66.4014 45.0662 64.6301 44.8815 62.8587 44.714L61.0461 44.5639C59.8298 44.4657 58.6134 44.3906 57.3912 44.3271C55.5194 44.229 53.6123 44.177 51.6816 44.1655H49.2725C46.8694 44.1655 44.4249 44.2348 41.9214 44.3503C38.5322 44.5062 34.6294 44.9277 30.7029 45.4531L30.4195 45.4936C29.7109 45.586 29.0142 45.6841 28.3174 45.7881C27.6207 45.892 26.7704 46.0248 26.0147 46.1519L23.9658 46.5041L22.838 46.7235L21.8107 46.9256L20.7951 47.1393L19.8032 47.3587C18.1145 47.7398 16.5026 48.1556 14.9851 48.6002L14.2057 48.8254L13.7747 48.9524H13.7215L13.2492 49.0968L12.5702 49.3162C11.1439 49.737 9.88568 50.5794 8.96846 51.7275C8.05125 52.8756 7.51997 54.2733 7.44751 55.7285C7.37505 57.1838 7.76494 58.6253 8.56375 59.8552C9.36257 61.085 10.5311 62.0429 11.9088 62.5973C13.692 63.3999 14.7135 63.3999 17.6953 62.6146Z" stroke="white" stroke-width="3" stroke-miterlimit="10" class="RlYEdHcP_2"></path>
<path d="M119.873 64.4253C119.229 63.1795 117.954 62.0636 115.314 60.5049C113.14 59.1647 110.893 57.9465 108.583 56.8561C107.992 58.958 107.355 61.0835 106.735 63.215C105.949 65.9132 105.176 68.5287 104.432 71.0853L105.081 71.4218L105.926 71.8646L106.191 72.0063L106.705 72.2838C107.201 72.5554 107.644 72.8034 108.016 73.0219L108.358 73.2285C108.518 73.323 108.66 73.4174 108.784 73.5001C115.397 77.9519 123.298 71.6403 119.956 64.5788C119.932 64.5258 119.904 64.4745 119.873 64.4253V64.4253Z" stroke="white" stroke-width="3" stroke-miterlimit="10" class="RlYEdHcP_3"></path>
<path d="M15.3368 33.3178C33.0207 28.4056 58.7284 27.4409 79.0362 30.9209L79.2816 30.9623C83.8048 25.334 88.0476 20.0548 91.741 15.5154C88.743 14.8408 85.7626 14.2785 82.8465 13.8465C81.9056 13.7103 80.5089 13.4914 79.7375 13.3671C76.7395 12.8877 69.3702 12.1006 64.5431 11.7455C60.5049 11.4555 43.6859 11.4673 39.5309 11.7455C25.9495 12.7338 9.42859 15.8883 5.98648 18.1965C-1.02629 22.8542 1.76129 33.7321 10.0773 34.176C11.7019 34.247 12.3915 34.1405 15.3368 33.3178Z" stroke="white" stroke-width="3" stroke-miterlimit="10" class="RlYEdHcP_4"></path>
<path d="M127.804 28.7403C124.844 27.1508 121.671 25.6314 118.333 24.223C116.953 29.015 115.308 34.7419 113.496 40.9773C115.988 42.187 119.629 44.0044 121.884 45.1849C125.927 47.2945 131.877 44.9979 133.617 40.6559C135.564 35.8698 133.599 31.8609 127.804 28.7403Z" stroke="white" stroke-width="3" stroke-miterlimit="10" class="RlYEdHcP_5"></path>
<path d="M99.5456 52.4527C99.8002 51.5826 100.055 50.7185 100.303 49.8602C101.263 46.5565 102.204 43.3233 103.104 40.2018C103.4 39.175 103.694 38.16 103.986 37.1568C105.763 30.902 107.421 25.2057 108.765 20.4912C111.056 12.4494 112.519 7.26453 112.59 7C112.365 7.27041 108.635 11.7439 102.944 18.6159C99.5041 22.7779 95.3415 27.8276 90.8 33.3475C87.3242 37.58 83.6294 42.0888 79.8636 46.7035C76.3819 50.9713 72.8469 55.3214 69.3831 59.6362C65.3922 64.5741 61.4961 69.4298 57.8723 73.9856C54.5742 78.1417 51.5011 82.0451 48.8011 85.5428C43.2648 92.7146 39.2857 98.1581 38.0778 100.445C36.3703 103.698 35.4989 107.32 35.541 110.988C35.5831 114.657 36.5376 118.258 38.3194 121.472C40.1012 124.686 42.6552 127.413 45.7544 129.411C48.8536 131.409 52.402 132.615 56.0841 132.924C56.6762 132.976 57.2683 133 57.9019 133C58.7408 133 59.579 132.953 60.4125 132.859C63.2758 132.54 66.0502 131.676 68.5837 130.314C71.1626 128.938 73.4425 127.07 75.2924 124.817C76.248 123.647 77.0832 122.385 77.7852 121.049C77.9688 120.708 78.1701 120.279 78.3774 119.767C78.8511 118.668 79.4254 117.163 80.0827 115.364C80.3491 114.63 80.6215 113.86 80.9116 113.013C81.9182 110.115 83.0728 106.617 84.334 102.69C85.3939 99.3808 86.5249 95.7714 87.7032 91.9503C87.9282 91.2273 88.1532 90.4984 88.3782 89.7577C89.2664 86.8772 90.1546 83.8792 91.096 80.8282C91.1612 80.6048 91.2322 80.3814 91.2973 80.158C92.6533 75.6727 94.0329 71.0405 95.4067 66.3906C96.0461 64.2351 96.6817 62.0797 97.3133 59.9242C98.083 57.4161 98.8271 54.9256 99.5456 52.4527ZM71.2897 111.438C71.0913 112.092 70.8336 112.728 70.5199 113.336C69.0652 116.217 66.5446 118.428 63.4856 119.507C60.4265 120.585 57.0659 120.448 54.1067 119.123C51.1475 117.798 48.8189 115.388 47.6081 112.398C46.3972 109.408 46.3979 106.069 47.61 103.079C48.822 100.089 51.1515 97.6805 54.1112 96.3567C57.071 95.033 60.4316 94.8967 63.4902 95.9763C66.5488 97.056 69.0686 99.268 70.5222 102.15C71.9758 105.031 72.2509 108.359 71.2897 111.438V111.438Z" stroke="white" stroke-width="3" stroke-miterlimit="10" class="RlYEdHcP_6"></path>
<style data-made-with="vivus-instant">.RlYEdHcP_0{stroke-dasharray:81 83;stroke-dashoffset:82;animation:RlYEdHcP_draw 1333ms ease 0ms forwards;}.RlYEdHcP_1{stroke-dasharray:41 43;stroke-dashoffset:42;animation:RlYEdHcP_draw 1333ms ease 111ms forwards;}.RlYEdHcP_2{stroke-dasharray:137 139;stroke-dashoffset:138;animation:RlYEdHcP_draw 1333ms ease 222ms forwards;}.RlYEdHcP_3{stroke-dasharray:54 56;stroke-dashoffset:55;animation:RlYEdHcP_draw 1333ms ease 333ms forwards;}.RlYEdHcP_4{stroke-dasharray:199 201;stroke-dashoffset:200;animation:RlYEdHcP_draw 1333ms ease 444ms forwards;}.RlYEdHcP_5{stroke-dasharray:67 69;stroke-dashoffset:68;animation:RlYEdHcP_draw 1333ms ease 555ms forwards;}.RlYEdHcP_6{stroke-dasharray:388 390;stroke-dashoffset:389;animation:RlYEdHcP_draw 1333ms ease 666ms forwards;}@keyframes RlYEdHcP_draw{100%{stroke-dashoffset:0;}}@keyframes RlYEdHcP_fade{0%{stroke-opacity:1;}93.54838709677419%{stroke-opacity:1;}100%{stroke-opacity:0;}}</style></svg>
