<svg id="Ebene_1" data-name="Ebene 1" xmlns="http://www.w3.org/2000/svg" viewBox="0 0 274.72 43.99"><defs><style>.cls-1{fill:#fff;}</style></defs><path class="cls-1" d="M17.27.38V4.07H6.45c-1.91,0-2.76,1-2.76,2.5,0,1.28.66,2.5,3.13,2.5h4.95c5.75,0,7.1,3.2,7.1,6.23,0,3.57-1.91,6.2-6.73,6.2H.38V17.81H12.27c2,0,2.91-1.1,2.91-2.63,0-1.38-.72-2.63-3.32-2.63H7C1.31,12.55,0,9.39,0,6.45,0,2.94,1.88.38,6.57.38Z"/><path class="cls-1" d="M35.17.38V4.07H29V21.5H25.29V4.07H19.12V.38Z"/><path class="cls-1" d="M48.47.38c4.76,0,6.79,2.94,6.79,6.32a6.22,6.22,0,0,1-4.47,6.35L55.7,21.5H51.6l-4.82-8.17h-5.5a.47.47,0,0,0-.54.53V21.5H37.05V13.14c0-2.38,1-3.35,3.32-3.35H48.6a2.73,2.73,0,0,0,2.94-2.94A2.65,2.65,0,0,0,48.6,4.07H37V.38Z"/><path class="cls-1" d="M74.82.38V4.07H64.25c-2.22,0-3.19,1-3.19,2.66s1.09,2.5,3.22,2.5H74.67v3.35H64.18c-2.12,0-3.22.85-3.22,2.57s1,2.66,3.19,2.66H74.86V21.5H64.15c-5,0-7-2.47-7-5.76a4.84,4.84,0,0,1,3-4.85,4.71,4.71,0,0,1-3-4.76c0-3.38,2.09-5.75,7.07-5.75Z"/><path class="cls-1" d="M80.77,21.5H76.7L84.12,2.72C84.9.75,86.34,0,88.56,0s3.63.75,4.38,2.72l7.14,18.78H96l-6.42-17a1,1,0,0,0-1-.72,1.06,1.06,0,0,0-1.06.72Z"/><path class="cls-1" d="M105.58,21.5h-3.66V4.73C101.92,1.91,103.58,0,107,0c3,0,4.73,1.5,5.32,4.16l3,12.93a1.42,1.42,0,0,0,2.81,0l3-12.93A4.76,4.76,0,0,1,126.27,0c3.41,0,5.07,1.91,5.07,4.73V21.5h-3.66V4.91c0-.81-.53-1.34-1.5-1.34a1.36,1.36,0,0,0-1.48,1.12l-3,12.93c-.66,2.78-2.1,4.25-5,4.25s-4.47-1.53-5.1-4.25l-3-12.93a1.37,1.37,0,0,0-1.47-1.12c-1,0-1.51.53-1.51,1.34Z"/><path class="cls-1" d="M159.65.38V4.07H148.83c-1.91,0-2.76,1-2.76,2.5,0,1.28.66,2.5,3.13,2.5h5c5.75,0,7.1,3.2,7.1,6.23,0,3.57-1.91,6.2-6.73,6.2H142.75V17.81h11.9c2,0,2.91-1.1,2.91-2.63,0-1.38-.72-2.63-3.32-2.63h-4.91c-5.64,0-7-3.16-7-6.1,0-3.51,1.88-6.07,6.57-6.07Z"/><path class="cls-1" d="M166.79.38V9h10.79V.38h3.73V21.5h-3.73V12.67H166.79V21.5H163.1V.38Z"/><path class="cls-1" d="M186.91.38V14.49c0,2.1,1.06,3.32,3.5,3.32h3.76c2.38,0,3.47-1.22,3.47-3.32V.38h3.63V14.77c0,4.44-2.34,6.73-6.85,6.73H190c-4.51,0-6.83-2.29-6.83-6.73V.38Z"/><path class="cls-1" d="M219.17.38V4.07H213V21.5h-3.73V4.07h-6.16V.38Z"/><path class="cls-1" d="M237.07.38V4.07h-6.16V21.5h-3.73V4.07H221V.38Z"/><path class="cls-1" d="M242.61.38v13.8c0,2,1,3.63,4.32,3.63h8.2V21.5h-8.42c-5.6,0-7.79-3.07-7.79-7.29V.38Z"/><path class="cls-1" d="M274.68.38V4.07H264.11c-2.22,0-3.19,1-3.19,2.66s1.09,2.5,3.22,2.5h10.39v3.35H264.05c-2.13,0-3.23.85-3.23,2.57s1,2.66,3.19,2.66h10.71V21.5H264c-5,0-7-2.47-7-5.76a4.84,4.84,0,0,1,3-4.85,4.71,4.71,0,0,1-3-4.76c0-3.38,2.09-5.75,7.07-5.75Z"/><path class="cls-1" d="M118.07,44a2.34,2.34,0,0,1-2.34-1.48L114.3,39.6a3.48,3.48,0,0,1,0-3.37l1.44-2.89a2.34,2.34,0,0,1,2.4-1.49h2.65a.73.73,0,0,1,.79.78.75.75,0,0,1-.79.78h-2.6c-.67,0-.78.06-1.08.65l-1.36,2.72a2.44,2.44,0,0,0-.33,1.18,2.24,2.24,0,0,0,.33,1.08l1.33,2.7c.31.64.47.69,1.17.69h2.54a.74.74,0,0,1,.79.78.75.75,0,0,1-.79.78Z"/><path class="cls-1" d="M133.45,42.43a.78.78,0,0,1,0,1.56h-6.93V32.63a.78.78,0,1,1,1.56,0v9.8Z"/><path class="cls-1" d="M141.69,44a2.37,2.37,0,0,1-1.94-.8,2.48,2.48,0,0,1-.59-1.85V32.63a.78.78,0,1,1,1.56,0v8.71c0,.87.27,1.09,1,1.09h2.65c.7,0,1-.22,1-1.09V32.63a.78.78,0,0,1,1.56,0v8.71a2.48,2.48,0,0,1-.59,1.85,2.37,2.37,0,0,1-1.94.8Z"/><path class="cls-1" d="M151.8,31.85h4.37c2.3,0,3.34,1.4,3.34,3.6a3,3,0,0,1-1,2.47,3.36,3.36,0,0,1,1,2.82A3.07,3.07,0,0,1,156.17,44H151.8Zm1.56,5.29h2.81c1.13,0,1.78-.5,1.78-1.69s-.36-2-1.78-2h-2.81Zm0,5.29h2.81c1.13,0,1.78-.5,1.78-1.69s-.36-2-1.78-2h-2.81Z"/></svg>