<svg width="275" height="44" viewBox="0 0 275 44" fill="none" xmlns="http://www.w3.org/2000/svg">
<g clip-path="url(#clip0_47:43)">
<path d="M17.2701 0.380005V4.07001H6.44019C4.54019 4.07001 3.69019 5.07001 3.69019 6.57001C3.69019 7.86001 4.35019 9.08002 6.82019 9.08002H11.7601C17.5201 9.08002 18.8702 12.27 18.8702 15.31C18.8702 18.87 16.9601 21.5 12.1401 21.5H0.370239V17.81H12.2701C14.2701 17.81 15.1802 16.71 15.1802 15.18C15.1802 13.8 14.4602 12.55 11.8602 12.55H6.9502C1.3102 12.55 -0.0498047 9.39001 -0.0498047 6.45001C-0.0498047 2.94001 1.83014 0.380005 6.52014 0.380005H17.2701Z" fill="white"/>
<path d="M35.17 0.380005V4.07001H29.01V21.5H25.28V4.07001H19.1201V0.380005H35.17Z" fill="white"/>
<path d="M48.4701 0.380005C53.2301 0.380005 55.26 3.32001 55.26 6.70001C55.3457 8.10854 54.95 9.50435 54.1377 10.6583C53.3254 11.8122 52.1449 12.6556 50.79 13.05L55.7001 21.5H51.5701L46.7501 13.33H41.2501C41.1765 13.3179 41.101 13.3235 41.0299 13.3464C40.9589 13.3692 40.8943 13.4087 40.8416 13.4614C40.7888 13.5142 40.7493 13.5788 40.7264 13.6498C40.7036 13.7209 40.698 13.7964 40.7101 13.87V21.5H37.02V13.15C37.02 10.77 38.0201 9.79999 40.3401 9.79999H48.5701C48.9659 9.83861 49.3653 9.79066 49.7407 9.65936C50.1161 9.52807 50.4584 9.31663 50.7439 9.03973C51.0294 8.76284 51.2511 8.42707 51.3938 8.05585C51.5365 7.68462 51.5966 7.28682 51.5701 6.89001C51.5911 6.50507 51.5282 6.12013 51.3857 5.7619C51.2433 5.40367 51.0248 5.08068 50.7451 4.81531C50.4655 4.54993 50.1314 4.34855 49.7662 4.22504C49.401 4.10152 49.0134 4.05888 48.6301 4.10004H37.05V0.410034L48.4701 0.380005Z" fill="white"/>
<path d="M74.8198 0.380005V4.07001H64.2499C62.0199 4.07001 61.0498 5.07004 61.0498 6.73004C61.0498 8.39004 62.1498 9.23004 64.2798 9.23004H74.6698V12.58H64.1798C62.0498 12.58 60.9598 13.43 60.9598 15.15C60.9598 16.87 61.9598 17.81 64.1498 17.81H74.8498V21.5H64.1498C59.1498 21.5 57.1498 19.03 57.1498 15.74C57.0735 14.7183 57.3227 13.6988 57.8617 12.8275C58.4006 11.9562 59.2016 11.278 60.1498 10.89C59.2049 10.5269 58.4026 9.86842 57.862 9.01257C57.3215 8.15672 57.0716 7.14925 57.1498 6.14001C57.1498 2.76001 59.2498 0.380005 64.2298 0.380005H74.8198Z" fill="white"/>
<path d="M80.7701 21.5H76.7002L84.1202 2.73004C84.9002 0.730042 86.3402 0 88.5602 0C90.7802 0 92.1902 0.750041 92.9402 2.73004L100.08 21.5H95.9802L89.5602 4.5C89.4978 4.28556 89.3654 4.0982 89.1842 3.96771C89.003 3.83722 88.7833 3.77115 88.5602 3.78003C88.3281 3.76899 88.0986 3.83306 87.9059 3.96277C87.7131 4.09247 87.5674 4.28086 87.4902 4.5L80.7701 21.5Z" fill="white"/>
<path d="M105.57 21.5H101.91V4.73003C101.91 1.91003 103.57 -1.02222e-05 106.98 -1.02222e-05C109.98 -1.02222e-05 111.71 1.50002 112.3 4.16002L115.3 17.09C115.356 17.4232 115.529 17.7257 115.787 17.9438C116.045 18.162 116.372 18.2817 116.71 18.2817C117.048 18.2817 117.375 18.162 117.633 17.9438C117.891 17.7257 118.064 17.4232 118.12 17.09L121.12 4.16002C121.276 2.92653 121.906 1.80216 122.877 1.0255C123.847 0.248844 125.083 -0.11902 126.32 -1.02222e-05C129.73 -1.02222e-05 131.39 1.91003 131.39 4.73003V21.5H127.73V4.89C127.73 4.07 127.19 3.54003 126.22 3.54003C125.877 3.50506 125.534 3.60262 125.26 3.81273C124.987 4.02285 124.805 4.3296 124.75 4.67003L121.75 17.59C121.09 20.38 119.65 21.85 116.75 21.85C113.85 21.85 112.28 20.31 111.65 17.59L108.65 4.67003C108.591 4.33173 108.408 4.02781 108.135 3.81853C107.863 3.60926 107.522 3.50989 107.18 3.54003C106.18 3.54003 105.67 4.07 105.67 4.89L105.57 21.5Z" fill="white"/>
<path d="M159.65 0.380005V4.07001H148.82C146.92 4.07001 146.07 5.07001 146.07 6.57001C146.07 7.86001 146.73 9.08002 149.2 9.08002H154.14C159.9 9.08002 161.25 12.27 161.25 15.31C161.25 18.87 159.34 21.5 154.52 21.5H142.75V17.81H154.64C156.64 17.81 157.55 16.71 157.55 15.18C157.55 13.8 156.83 12.55 154.24 12.55H149.32C143.69 12.55 142.38 9.39001 142.38 6.45001C142.38 2.94001 144.26 0.380005 148.95 0.380005H159.65Z" fill="white"/>
<path d="M166.79 0.380005V8.98004H177.57V0.380005H181.3V21.5H177.57V12.68H166.78V21.5H163.08V0.380005H166.79Z" fill="white"/>
<path d="M186.91 0.380005V14.49C186.91 16.59 187.97 17.81 190.41 17.81H194.17C196.55 17.81 197.64 16.59 197.64 14.49V0.380005H201.27V14.77C201.27 19.22 198.92 21.5 194.42 21.5H189.97C185.47 21.5 183.15 19.22 183.15 14.77V0.380005H186.91Z" fill="white"/>
<path d="M219.17 0.380005V4.07001H213.01V21.5H209.28V4.07001H203.12V0.380005H219.17Z" fill="white"/>
<path d="M237.07 0.380005V4.07001H230.9V21.5H227.18V4.07001H221.02V0.380005H237.07Z" fill="white"/>
<path d="M242.57 0.380005V14.18C242.57 16.18 243.57 17.81 246.89 17.81H255.09V21.5H246.67C241.07 21.5 238.88 18.43 238.88 14.21V0.380005H242.57Z" fill="white"/>
<path d="M274.68 0.380005V4.07001H264.11C261.88 4.07001 260.91 5.07004 260.91 6.73004C260.91 8.39004 262.01 9.23004 264.14 9.23004H274.57V12.58H264.08C261.96 12.58 260.86 13.43 260.86 15.15C260.86 16.87 261.86 17.81 264.05 17.81H274.75V21.5H264.05C259.05 21.5 257.05 19.03 257.05 15.74C256.974 14.7183 257.223 13.6988 257.762 12.8275C258.301 11.9562 259.102 11.278 260.05 10.89C259.106 10.5255 258.305 9.86681 257.764 9.01129C257.224 8.15578 256.974 7.14898 257.05 6.14001C257.05 2.76001 259.15 0.380005 264.13 0.380005H274.68Z" fill="white"/>
<path d="M99.76 43.99C99.2616 44.0266 98.7647 43.9027 98.3418 43.6364C97.9189 43.37 97.5924 42.9753 97.41 42.51L95.9801 39.61C95.7009 39.0904 95.5547 38.5099 95.5547 37.9201C95.5547 37.3302 95.7009 36.7496 95.9801 36.2301L97.42 33.35C97.6014 32.8722 97.9342 32.4669 98.3676 32.1961C98.8009 31.9252 99.3111 31.8037 99.8201 31.85H102.48C102.584 31.8426 102.689 31.8577 102.787 31.8942C102.885 31.9308 102.974 31.9881 103.048 32.062C103.122 32.136 103.179 32.2249 103.216 32.3229C103.252 32.4209 103.267 32.5257 103.26 32.63C103.266 32.734 103.25 32.838 103.213 32.9353C103.175 33.0325 103.118 33.1208 103.044 33.1944C102.971 33.268 102.883 33.3253 102.785 33.3624C102.688 33.3996 102.584 33.4158 102.48 33.41H99.8701C99.2001 33.41 99.09 33.47 98.79 34.06L97.4401 36.78C97.2255 37.14 97.1116 37.551 97.1101 37.97C97.1227 38.3498 97.2366 38.7192 97.4401 39.04L98.76 41.74C99.07 42.39 99.2301 42.43 99.9301 42.43H102.48C102.584 42.4226 102.689 42.4377 102.787 42.4743C102.885 42.5108 102.974 42.568 103.048 42.642C103.122 42.7159 103.179 42.805 103.216 42.903C103.252 43.001 103.267 43.1057 103.26 43.21C103.266 43.314 103.25 43.418 103.213 43.5152C103.175 43.6125 103.118 43.7008 103.044 43.7744C102.971 43.848 102.883 43.9053 102.785 43.9425C102.688 43.9796 102.584 43.9958 102.48 43.99H99.76Z" fill="white"/>
<path d="M115.5 36.23C115.784 36.7654 115.925 37.3645 115.91 37.97C115.901 38.6202 115.726 39.2571 115.4 39.82L113.96 42.7C113.809 43.0814 113.546 43.4086 113.206 43.639C112.867 43.8695 112.466 43.9927 112.055 43.9927C111.645 43.9927 111.244 43.8695 110.904 43.639C110.564 43.4086 110.302 43.0814 110.15 42.7L108.71 39.82C108.385 39.2571 108.209 38.6202 108.2 37.97C108.186 37.3645 108.327 36.7654 108.61 36.23L110.17 33.13C110.308 32.7405 110.564 32.4034 110.901 32.1649C111.239 31.9265 111.642 31.7984 112.055 31.7984C112.468 31.7984 112.872 31.9265 113.209 32.1649C113.547 32.4034 113.802 32.7405 113.94 33.13L115.5 36.23ZM112.57 33.89C112.44 33.64 112.36 33.42 112.03 33.42C111.7 33.42 111.63 33.64 111.5 33.89L110.1 36.71C109.868 37.0933 109.744 37.532 109.74 37.98C109.744 38.3309 109.836 38.6751 110.01 38.98L111.5 41.98C111.61 42.2 111.72 42.45 112.03 42.45C112.34 42.45 112.46 42.2 112.57 41.98L114.06 38.98C114.234 38.6751 114.327 38.3309 114.33 37.98C114.327 37.532 114.202 37.0933 113.97 36.71L112.57 33.89Z" fill="white"/>
<path d="M125.04 43.99C124.543 44.0243 124.049 43.8994 123.628 43.6332C123.207 43.367 122.882 42.9736 122.7 42.51L121.26 39.61C120.991 39.1049 120.847 38.5424 120.84 37.97C120.831 37.3614 120.983 36.7612 121.28 36.23L122.71 33.35C122.895 32.8724 123.23 32.4677 123.664 32.1971C124.099 31.9265 124.61 31.8047 125.12 31.85H127.77C127.874 31.8426 127.979 31.8576 128.077 31.8942C128.175 31.9308 128.264 31.988 128.338 32.062C128.412 32.1359 128.469 32.2249 128.506 32.3229C128.543 32.4209 128.558 32.5256 128.55 32.63C128.556 32.7339 128.54 32.838 128.503 32.9352C128.465 33.0325 128.408 33.1208 128.335 33.1944C128.261 33.268 128.173 33.3252 128.075 33.3624C127.978 33.3995 127.874 33.4158 127.77 33.41H125.17C124.49 33.41 124.39 33.47 124.09 34.06L122.73 36.78C122.52 37.1418 122.406 37.5516 122.4 37.97C122.413 38.3497 122.527 38.7192 122.73 39.04L124.06 41.74C124.37 42.39 124.53 42.43 125.23 42.43H127.77C127.874 42.4225 127.979 42.4376 128.077 42.4742C128.175 42.5108 128.264 42.568 128.338 42.6419C128.412 42.7159 128.469 42.8049 128.506 42.9029C128.543 43.0009 128.558 43.1057 128.55 43.21C128.556 43.3139 128.54 43.4179 128.503 43.5152C128.465 43.6124 128.408 43.7008 128.335 43.7744C128.261 43.848 128.173 43.9053 128.075 43.9424C127.978 43.9796 127.874 43.9958 127.77 43.99H125.04Z" fill="white"/>
<path d="M133.48 32.63C133.463 32.5237 133.471 32.4147 133.504 32.3122C133.537 32.2097 133.594 32.1166 133.67 32.0404C133.747 31.9642 133.84 31.9072 133.942 31.8741C134.045 31.841 134.154 31.8328 134.26 31.85C134.83 31.85 135.05 32.13 135.05 32.63V36.22L139.81 32.22C139.976 32.0381 140.204 31.9241 140.45 31.9C140.554 31.9025 140.656 31.9259 140.75 31.9688C140.845 32.0118 140.93 32.0735 141 32.1501C141.07 32.2267 141.124 32.3167 141.158 32.4146C141.192 32.5125 141.207 32.6164 141.2 32.72C141.168 32.9749 141.039 33.2076 140.84 33.37L135.45 37.96L140.81 42.55C140.92 42.6265 141.012 42.7262 141.079 42.8419C141.146 42.9576 141.188 43.0867 141.2 43.22C141.207 43.3231 141.192 43.4265 141.158 43.5238C141.123 43.6212 141.069 43.7106 140.999 43.7864C140.929 43.8622 140.844 43.9229 140.75 43.9648C140.655 44.0066 140.553 44.0289 140.45 44.03C140.12 44.03 139.85 43.75 139.6 43.56L135.05 39.65V43.25C135.05 43.75 134.83 44.03 134.26 44.03C134.154 44.0472 134.045 44.0389 133.942 44.0058C133.84 43.9727 133.747 43.9157 133.67 43.8396C133.594 43.7634 133.537 43.6702 133.504 43.5677C133.471 43.4652 133.463 43.3563 133.48 43.25V32.63Z" fill="white"/>
<path d="M147.69 43.21C147.69 43.4169 147.608 43.6153 147.461 43.7615C147.315 43.9078 147.117 43.99 146.91 43.99C146.703 43.99 146.505 43.9078 146.358 43.7615C146.212 43.6153 146.13 43.4169 146.13 43.21V31.89H151.31C151.637 31.8616 151.966 31.9041 152.275 32.0146C152.584 32.125 152.865 32.3009 153.1 32.53C153.373 32.7804 153.583 33.0925 153.712 33.4404C153.841 33.7882 153.885 34.1618 153.84 34.53V36.66C153.881 37.0197 153.846 37.3841 153.735 37.7289C153.625 38.0738 153.442 38.3912 153.2 38.66C152.938 38.9441 152.611 39.1607 152.247 39.2913C151.883 39.4218 151.493 39.4626 151.11 39.41H147.69V43.21ZM147.69 37.84H151.15C152.07 37.84 152.28 37.61 152.28 36.72V34.53C152.28 33.64 152.07 33.41 151.15 33.41H147.69V37.84Z" fill="white"/>
<path d="M163.41 42.43H165.7C165.907 42.43 166.105 42.5122 166.252 42.6584C166.398 42.8047 166.48 43.0032 166.48 43.21C166.48 43.4169 166.398 43.6153 166.252 43.7615C166.105 43.9078 165.907 43.99 165.7 43.99H159.57C159.363 43.99 159.165 43.9078 159.019 43.7615C158.872 43.6153 158.79 43.4169 158.79 43.21C158.79 43.0032 158.872 42.8047 159.019 42.6584C159.165 42.5122 159.363 42.43 159.57 42.43H161.86V33.43H159.57C159.363 33.43 159.165 33.3478 159.019 33.2015C158.872 33.0553 158.79 32.8569 158.79 32.65C158.79 32.4432 158.872 32.2447 159.019 32.0984C159.165 31.9522 159.363 31.87 159.57 31.87H165.72C165.927 31.87 166.125 31.9522 166.272 32.0984C166.418 32.2447 166.5 32.4432 166.5 32.65C166.5 32.8569 166.418 33.0553 166.272 33.2015C166.125 33.3478 165.927 33.43 165.72 33.43H163.43L163.41 42.43Z" fill="white"/>
<path d="M172.97 33.41V33.97C172.97 34.1769 172.888 34.3753 172.742 34.5215C172.595 34.6678 172.397 34.75 172.19 34.75C171.983 34.75 171.785 34.6678 171.639 34.5215C171.492 34.3753 171.41 34.1769 171.41 33.97V31.89H179.12V34.01C179.12 34.2169 179.038 34.4153 178.892 34.5616C178.745 34.7079 178.547 34.79 178.34 34.79C178.133 34.79 177.935 34.7079 177.789 34.5616C177.642 34.4153 177.56 34.2169 177.56 34.01V33.45H176.05V43.25C176.05 43.4569 175.968 43.6553 175.822 43.8016C175.675 43.9479 175.477 44.03 175.27 44.03C175.063 44.03 174.865 43.9479 174.719 43.8016C174.572 43.6553 174.49 43.4569 174.49 43.25V33.45L172.97 33.41Z" fill="white"/>
</g>
<defs>
<clipPath id="clip0_47:43">
<rect width="274.72" height="43.99" fill="white"/>
</clipPath>
</defs>
</svg>
