<svg width="275" height="44" viewBox="0 0 275 44" fill="none" xmlns="http://www.w3.org/2000/svg">
<g clip-path="url(#clip0_48:64)">
<path d="M17.2699 0.410004V4.11002H6.43994C4.53994 4.11002 3.68994 5.11002 3.68994 6.61002C3.68994 7.89002 4.34995 9.11002 6.81995 9.11002H11.7599C17.5199 9.11002 18.87 12.3 18.87 15.34C18.87 18.91 16.9599 21.54 12.1399 21.54H0.369995V17.84H12.2699C14.2699 17.84 15.1799 16.75 15.1799 15.21C15.1799 13.84 14.46 12.59 11.86 12.59H6.94995C1.30995 12.59 -0.0500488 9.42001 -0.0500488 6.48001C-0.0500488 2.98001 1.8299 0.410004 6.5199 0.410004H17.2699Z" fill="white"/>
<path d="M35.17 0.410004V4.11002H29.01V21.54H25.28V4.07001H19.1201V0.410004H35.17Z" fill="white"/>
<path d="M48.47 0.410004C53.23 0.410004 55.2599 3.35001 55.2599 6.73001C55.3461 8.13984 54.9507 9.53712 54.1385 10.6927C53.3264 11.8483 52.1456 12.6936 50.7899 13.09L55.7 21.54H51.5699L46.75 13.37H41.25C40.9 13.37 40.71 13.52 40.71 13.9V21.54H37.0199V13.18C37.0199 10.8 38.02 9.83002 40.34 9.83002H48.5699C48.9637 9.85998 49.3592 9.80448 49.7295 9.66733C50.0998 9.53017 50.4361 9.31459 50.7153 9.03537C50.9946 8.75615 51.2101 8.41988 51.3473 8.04959C51.4844 7.6793 51.5398 7.28375 51.5099 6.89001C51.5312 6.50545 51.4685 6.12085 51.3259 5.76303C51.1834 5.40521 50.9645 5.08277 50.6847 4.81815C50.4048 4.55352 50.0707 4.35307 49.7054 4.23077C49.3402 4.10848 48.9527 4.06728 48.5699 4.11002H36.99V0.410004H48.47Z" fill="white"/>
<path d="M74.82 0.410004V4.11002H64.2501C62.0201 4.11002 61.05 5.11001 61.05 6.76001C61.05 8.41001 62.15 9.26999 64.28 9.26999H74.67V12.62H64.18C62.05 12.62 60.96 13.46 60.96 15.18C60.96 16.9 61.96 17.84 64.15 17.84H74.85V21.54H64.15C59.15 21.54 57.15 19.06 57.15 15.78C57.0721 14.7581 57.3207 13.7378 57.8598 12.8662C58.399 11.9946 59.2008 11.3167 60.15 10.93C59.2043 10.565 58.4016 9.90473 57.8612 9.04718C57.3207 8.18963 57.0712 7.18061 57.15 6.17001C57.15 2.79001 59.2501 0.410004 64.2301 0.410004H74.82Z" fill="white"/>
<path d="M80.7699 21.5H76.7L84.12 2.72C84.9 0.720001 86.3399 0 88.5599 0C90.7799 0 92.1899 0.750001 92.9399 2.72L100.08 21.5H95.98L89.5599 4.5C89.4976 4.28556 89.3652 4.09817 89.184 3.96768C89.0027 3.83719 88.7831 3.77112 88.5599 3.78C88.3279 3.76896 88.0984 3.83306 87.9056 3.96277C87.7129 4.09247 87.5672 4.28086 87.49 4.5L80.7699 21.5Z" fill="white"/>
<path d="M105.57 21.5H101.91V4.71999C101.91 1.90999 103.57 -1.02222e-05 106.98 -1.02222e-05C109.98 -1.02222e-05 111.71 1.49999 112.3 4.15999L115.3 17.08C115.356 17.4132 115.529 17.7157 115.787 17.9339C116.045 18.152 116.372 18.2717 116.71 18.2717C117.048 18.2717 117.375 18.152 117.633 17.9339C117.891 17.7157 118.064 17.4132 118.12 17.08L121.12 4.15999C121.276 2.9265 121.906 1.80216 122.876 1.0255C123.847 0.248844 125.082 -0.11902 126.32 -1.02222e-05C129.73 -1.02222e-05 131.39 1.90999 131.39 4.71999V21.5H127.73V4.90999C127.736 4.71694 127.7 4.52483 127.624 4.34722C127.548 4.16961 127.434 4.01081 127.29 3.88207C127.146 3.75333 126.976 3.65775 126.791 3.6021C126.606 3.54645 126.411 3.53208 126.22 3.55999C125.877 3.52502 125.534 3.62261 125.26 3.83272C124.987 4.04284 124.804 4.34955 124.75 4.68999L121.75 17.61C121.09 20.4 119.65 21.87 116.75 21.87C113.85 21.87 112.28 20.34 111.65 17.61L108.65 4.68999C108.591 4.35169 108.407 4.0478 108.135 3.83852C107.863 3.62925 107.522 3.52985 107.18 3.55999C106.989 3.53208 106.794 3.54645 106.609 3.6021C106.424 3.65775 106.253 3.75333 106.109 3.88207C105.965 4.01081 105.851 4.16961 105.776 4.34722C105.7 4.52483 105.664 4.71694 105.67 4.90999L105.57 21.5Z" fill="white"/>
<path d="M159.65 0.410004V4.11002H148.82C146.92 4.11002 146.07 5.11002 146.07 6.61002C146.07 7.89002 146.73 9.11002 149.2 9.11002H154.14C159.9 9.11002 161.25 12.3 161.25 15.34C161.25 18.91 159.34 21.54 154.52 21.54H142.75V17.84H154.64C156.64 17.84 157.55 16.75 157.55 15.21C157.55 13.84 156.83 12.59 154.24 12.59H149.32C143.69 12.59 142.38 9.42001 142.38 6.48001C142.38 2.98001 144.26 0.410004 148.95 0.410004H159.65Z" fill="white"/>
<path d="M166.79 0.410004V9.01999H177.57V0.410004H181.3V21.54H177.57V12.71H166.78V21.54H163.08V0.410004H166.79Z" fill="white"/>
<path d="M186.91 0.410004V14.53C186.91 16.62 187.97 17.84 190.41 17.84H194.17C196.55 17.84 197.64 16.62 197.64 14.53V0.410004H201.27V14.81C201.27 19.25 198.92 21.54 194.42 21.54H189.97C185.47 21.54 183.15 19.25 183.15 14.81V0.410004H186.91Z" fill="white"/>
<path d="M219.17 0.410004V4.11002H213.01V21.54H209.28V4.07001H203.12V0.410004H219.17Z" fill="white"/>
<path d="M237.07 0.410004V4.11002H230.9V21.54H227.18V4.07001H221.02V0.410004H237.07Z" fill="white"/>
<path d="M242.57 0.410004V14.21C242.57 16.21 243.57 17.84 246.89 17.84H255.09V21.54H246.67C241.07 21.54 238.88 18.47 238.88 14.24V0.410004H242.57Z" fill="white"/>
<path d="M274.68 0.410004V4.11002H264.11C261.88 4.11002 260.91 5.11001 260.91 6.76001C260.91 8.41001 262.01 9.26999 264.14 9.26999H274.57V12.62H264.08C261.96 12.62 260.86 13.46 260.86 15.18C260.86 16.9 261.86 17.84 264.05 17.84H274.75V21.54H264.05C259.05 21.54 257.05 19.06 257.05 15.78C256.972 14.7581 257.221 13.7378 257.76 12.8662C258.299 11.9946 259.101 11.3167 260.05 10.93C259.105 10.5637 258.304 9.90309 257.763 9.04587C257.223 8.18865 256.973 7.18034 257.05 6.17001C257.05 2.79001 259.15 0.410004 264.13 0.410004H274.68Z" fill="white"/>
<path d="M120.84 31.84H125.21C127.51 31.84 128.55 33.25 128.55 35.45C128.583 35.9093 128.51 36.3701 128.337 36.7967C128.164 37.2233 127.894 37.6042 127.55 37.91C127.923 38.2728 128.208 38.717 128.381 39.2079C128.555 39.6988 128.613 40.2232 128.55 40.74C128.576 41.1814 128.507 41.6232 128.347 42.0354C128.187 42.4476 127.94 42.8205 127.623 43.1289C127.307 43.4372 126.927 43.6737 126.51 43.8223C126.094 43.9709 125.651 44.0281 125.21 43.99H120.84V31.84ZM122.4 37.13H125.21C126.34 37.13 126.99 36.63 126.99 35.45C126.99 34.27 126.63 33.45 125.21 33.45H122.4V37.13ZM122.4 42.43H125.21C126.34 42.43 126.99 41.93 126.99 40.74C126.99 39.55 126.63 38.74 125.21 38.74H122.4V42.43Z" fill="white"/>
<path d="M136.57 32.64C136.7 32.22 136.87 31.84 137.37 31.84C137.87 31.84 138.07 32.23 138.18 32.64L141.18 43.21C141.29 43.58 140.87 43.99 140.44 43.99C140.232 43.9729 140.035 43.887 139.881 43.7458C139.727 43.6045 139.625 43.416 139.59 43.21L139.01 41.33H135.69L135.1 43.21C135.065 43.416 134.963 43.6045 134.809 43.7458C134.655 43.887 134.458 43.9729 134.25 43.99C133.82 43.99 133.4 43.58 133.5 43.21L136.57 32.64ZM137.39 35.54L136.18 39.77H138.57L137.39 35.54Z" fill="white"/>
<path d="M147.69 43.21C147.69 43.4169 147.608 43.6153 147.462 43.7616C147.315 43.9079 147.117 43.99 146.91 43.99C146.703 43.99 146.505 43.9079 146.359 43.7616C146.212 43.6153 146.13 43.4169 146.13 43.21V31.84H151.37C151.682 31.8253 151.993 31.8724 152.286 31.9788C152.58 32.0852 152.849 32.2487 153.079 32.4598C153.308 32.6709 153.494 32.9254 153.625 33.2087C153.755 33.4919 153.829 33.7983 153.84 34.11V35.18C153.834 35.4915 153.765 35.7985 153.635 36.0818C153.506 36.3652 153.32 36.619 153.088 36.8272C152.856 37.0354 152.584 37.1937 152.289 37.2923C151.993 37.3908 151.68 37.4275 151.37 37.4H149.94L153.45 42.4C153.658 42.629 153.794 42.9142 153.84 43.22C153.839 43.322 153.817 43.4227 153.776 43.516C153.734 43.6092 153.674 43.693 153.599 43.7623C153.524 43.8315 153.436 43.8848 153.34 43.9188C153.244 43.9528 153.142 43.9668 153.04 43.96C152.898 43.9518 152.761 43.9069 152.642 43.8298C152.523 43.7527 152.426 43.6459 152.36 43.52L148.05 37.37H147.69V43.21ZM147.69 35.84H151.15C151.59 35.84 152.28 35.84 152.28 35.18V34.11C152.28 33.48 151.64 33.4 151.17 33.4H147.69V35.84Z" fill="white"/>
</g>
<defs>
<clipPath id="clip0_48:64">
<rect width="274.72" height="43.99" fill="white"/>
</clipPath>
</defs>
</svg>
